<?xml version="1.0" encoding="UTF-8"?>
<!DOCTYPE X3D PUBLIC "ISO//Web3D//DTD X3D 3.0//EN" "http://www.web3d.org/specifications/x3d-3.0.dtd">
<X3D version="3.0" profile="Immersive" xmlns:xsd="http://www.w3.org/2001/XMLSchema-instance" xsd:noNamespaceSchemaLocation="http://www.web3d.org/specifications/x3d-3.0.xsd">
	<head>
		<meta name="filename" content="Bool Double texture Flipp pagenedgesplit.x3d" />
		<meta name="generator" content="Blender 2.93.7" />
	</head>
	<Scene>
		<NavigationInfo headlight="true"
		                visibilityLimit="0.0"
		                type='"EXAMINE", "ANY"'
		                avatarSize="0.25, 1.75, 0.75"
		                />
		<Background DEF="WO_World"
		            groundColor="0.051 0.051 0.051"
		            skyColor="0.051 0.051 0.051"
		            />
		<Transform DEF="RightPageFlip_001_TRANSFORM"
		           translation="-74.212151 3.080441 13.751998"
		           scale="-3.300678 -3.135651 -2.595237"
		           rotation="0.000970 0.707107 0.707106 3.139652"
		           >
			<Transform DEF="RightPageFlip_TRANSFORM"
			           translation="-4.251698 -4.463028 -0.192007"
			           scale="1.000000 1.000000 1.000000"
			           rotation="0.000000 -0.000000 -0.000000 0.000000"
			           >
				<Transform DEF="RightPageFlip_ifs_TRANSFORM"
				           translation="-0.000002 -0.000001 0.000000"
				           scale="1.000000 1.000000 1.000000"
				           rotation="-0.000000 -0.000000 0.000000 0.000000"
				           >
					<Group DEF="group_ME_RightPageFlip_001">
						<Shape>
							<Appearance>
								<Material DEF="MA_Max_MaterialID_0"
								          diffuseColor="0.800 0.800 0.800"
								          specularColor="0.401 0.401 0.401"
								          emissiveColor="0.000 0.000 0.000"
								          ambientIntensity="0.000"
								          shininess="0.500"
								          transparency="0.0"
								          />
							</Appearance>
							<IndexedFaceSet solid="false"
							                creaseAngle="0.5236"
							                texCoordIndex="0 1 2 3 -1 4 5 6 7 -1 8 9 10 11 -1 12 13 14 15 -1 16 17 18 19 -1 20 21 22 23 -1 24 25 26 27 -1 28 29 30 31 -1 32 33 34 35 -1 36 37 38 39 -1 40 41 42 43 -1 44 45 46 47 -1 48 49 50 51 -1 52 53 54 55 -1 56 57 58 59 -1 60 61 62 63 -1 64 65 66 67 -1 68 69 70 71 -1 72 73 74 75 -1 76 77 78 79 -1 80 81 82 83 -1 84 85 86 87 -1 88 89 90 91 -1 92 93 94 95 -1 96 97 98 99 -1 100 101 102 103 -1 104 105 106 107 -1 108 109 110 111 -1 112 113 114 115 -1 116 117 118 119 -1 120 121 122 123 -1 124 125 126 127 -1 128 129 130 131 -1 132 133 134 135 -1 136 137 138 139 -1 140 141 142 143 -1 144 145 146 147 -1 148 149 150 151 -1 152 153 154 155 -1 156 157 158 159 -1 160 161 162 163 -1 164 165 166 167 -1 168 169 170 171 -1 172 173 174 175 -1 176 177 178 179 -1 180 181 182 183 -1 184 185 186 187 -1 188 189 190 191 -1 192 193 194 195 -1 196 197 198 199 -1 200 201 202 203 -1 204 205 206 207 -1 208 209 210 211 -1 212 213 214 215 -1 216 217 218 219 -1 220 221 222 223 -1 224 225 226 227 -1 228 229 230 231 -1 232 233 234 235 -1 236 237 238 239 -1 240 241 242 243 -1 244 245 246 247 -1 248 249 250 251 -1 252 253 254 255 -1 256 257 258 259 -1 260 261 262 263 -1 264 265 266 267 -1 268 269 270 271 -1 "
							                coordIndex="92 100 152 94 -1 96 6 153 98 -1 99 7 4 93 -1 100 102 154 152 -1 6 10 155 153 -1 7 11 8 4 -1 102 104 156 154 -1 10 14 157 155 -1 11 15 12 8 -1 104 107 158 156 -1 14 18 159 157 -1 15 19 16 12 -1 107 108 160 158 -1 18 22 161 159 -1 19 23 20 16 -1 108 110 162 160 -1 22 26 163 161 -1 23 27 24 20 -1 110 112 164 162 -1 26 30 165 163 -1 27 31 28 24 -1 112 114 166 164 -1 30 34 167 165 -1 31 35 32 28 -1 114 116 168 166 -1 34 38 169 167 -1 35 39 36 32 -1 116 118 170 168 -1 38 42 171 169 -1 39 43 40 36 -1 118 120 172 170 -1 42 46 173 171 -1 43 47 44 40 -1 120 122 174 172 -1 46 50 175 173 -1 47 51 48 44 -1 122 124 176 174 -1 50 54 177 175 -1 51 55 52 48 -1 124 126 178 176 -1 54 58 179 177 -1 55 59 56 52 -1 126 128 180 178 -1 58 62 181 179 -1 59 63 60 56 -1 128 130 182 180 -1 62 66 183 181 -1 63 67 64 60 -1 130 133 184 182 -1 66 70 185 183 -1 67 71 68 64 -1 133 134 186 184 -1 70 74 187 185 -1 71 75 72 68 -1 134 136 188 186 -1 74 78 189 187 -1 75 79 76 72 -1 136 138 190 188 -1 78 82 150 189 -1 79 83 80 76 -1 138 140 191 190 -1 82 86 151 150 -1 83 87 84 80 -1 140 142 144 191 -1 86 147 148 151 -1 87 149 143 84 -1 1 2 3 0 -1 90 89 88 91 -1 "
							                >
								<Coordinate DEF="coords_ME_RightPageFlip_001"
								            point="-2.228153 -0.007968 -0.249979 -2.228135 -0.007968 -0.239979 -2.228129 8.934032 -0.239979 -2.228148 8.934032 -0.249979 -1.428188 -0.007969 -0.251463 -1.428162 -0.007969 -0.241463 -1.428161 8.934031 -0.241463 -1.428187 8.934031 -0.251463 -0.919238 -0.007969 -0.253203 -0.919211 -0.007969 -0.243203 -0.919211 8.934031 -0.243203 -0.919237 8.934031 -0.253203 -0.401242 -0.007969 -0.254089 -0.401272 -0.007969 -0.244089 -0.401271 8.934031 -0.244089 -0.401241 8.934031 -0.254089 0.118258 -0.007970 -0.250036 0.118137 -0.007970 -0.240037 0.118138 8.934031 -0.240037 0.118258 8.934031 -0.250036 0.636147 -0.007970 -0.241535 0.635984 -0.007970 -0.231536 0.635985 8.934031 -0.231536 0.636147 8.934031 -0.241535 0.978397 -0.007970 -0.235978 0.978234 -0.007970 -0.225979 0.978235 8.934031 -0.225979 0.978397 8.934031 -0.235978 1.238839 -0.007970 -0.231709 1.238677 -0.007970 -0.221710 1.238677 8.934031 -0.221710 1.238840 8.934031 -0.231709 1.499282 -0.007970 -0.227440 1.499120 -0.007970 -0.217441 1.499120 8.934031 -0.217441 1.499283 8.934031 -0.227440 1.759562 -0.007970 -0.223174 1.759727 -0.007970 -0.213170 1.759727 8.934031 -0.213170 1.759562 8.934031 -0.223174 2.009063 -0.007970 -0.235436 2.009579 -0.007970 -0.225449 2.009580 8.934031 -0.225449 2.009063 8.934031 -0.235436 2.269258 -0.007970 -0.249481 2.269799 -0.007970 -0.239496 2.269799 8.934031 -0.239496 2.269259 8.934031 -0.249481 2.529466 -0.007968 -0.265071 2.530006 -0.007972 -0.255085 2.530006 8.934028 -0.251998 2.529466 8.934031 -0.261983 2.789673 -0.007966 -0.280660 2.790214 -0.007972 -0.270675 2.790214 8.934025 -0.264500 2.789674 8.934032 -0.274485 3.049878 -0.007967 -0.294706 3.050421 -0.007974 -0.284721 3.050424 8.934025 -0.278546 3.049880 8.934031 -0.288531 3.310085 -0.007967 -0.308752 3.310629 -0.007974 -0.298767 3.310632 8.934025 -0.292592 3.310088 8.934031 -0.302577 3.442603 -0.007967 -0.315893 3.442409 -0.007974 -0.305868 3.441957 8.934025 -0.299692 3.442150 8.934031 -0.309718 3.760331 -0.007966 -0.286068 3.758374 -0.007972 -0.276207 3.756842 8.934025 -0.270193 3.758798 8.934032 -0.280054 4.011357 -0.007967 -0.208564 4.005956 -0.007974 -0.199764 4.002342 8.934025 -0.194515 4.007744 8.934031 -0.203314 4.153027 -0.007968 -0.061785 4.144746 -0.007975 -0.055963 4.139448 8.934023 -0.052646 4.147729 8.934031 -0.058468 4.213929 -0.007969 0.062257 4.204670 -0.007976 0.066090 4.198833 8.934022 0.068146 4.208092 8.934029 0.064313 4.247137 -0.007969 0.159996 4.237747 -0.007976 0.163443 4.231842 8.934023 0.165255 4.241232 8.934029 0.161808 4.258309 -0.007969 0.188405 4.249004 -0.007976 0.192068 4.243145 8.934023 0.194017 4.252450 8.934029 0.190354 -2.228153 -0.007968 -0.249979 -2.228153 -0.007968 -0.249979 -2.228135 -0.007968 -0.239979 -2.228135 -0.007968 -0.239979 -2.228129 8.934032 -0.239979 -2.228129 8.934032 -0.239979 -2.228148 8.934032 -0.249979 -2.228148 8.934032 -0.249979 -1.428188 -0.007969 -0.251463 -1.428161 8.934031 -0.241463 -0.919238 -0.007969 -0.253203 -0.919211 8.934031 -0.243203 -0.401242 -0.007969 -0.254089 -0.401271 8.934031 -0.244089 0.118138 8.934031 -0.240037 0.118258 -0.007970 -0.250036 0.636147 -0.007970 -0.241535 0.635985 8.934031 -0.231536 0.978397 -0.007970 -0.235978 0.978235 8.934031 -0.225979 1.238839 -0.007970 -0.231709 1.238677 8.934031 -0.221710 1.499282 -0.007970 -0.227440 1.499120 8.934031 -0.217441 1.759562 -0.007970 -0.223174 1.759727 8.934031 -0.213170 2.009063 -0.007970 -0.235436 2.009580 8.934031 -0.225449 2.269258 -0.007970 -0.249481 2.269799 8.934031 -0.239496 2.529466 -0.007968 -0.265071 2.530006 8.934028 -0.251998 2.789673 -0.007966 -0.280660 2.790214 8.934025 -0.264500 3.049878 -0.007967 -0.294706 3.050424 8.934025 -0.278546 3.310085 -0.007967 -0.308752 3.310632 8.934025 -0.292592 3.442603 -0.007967 -0.315893 3.441957 8.934025 -0.299692 3.756842 8.934025 -0.270193 3.760331 -0.007966 -0.286068 4.011357 -0.007967 -0.208564 4.002342 8.934025 -0.194515 4.153027 -0.007968 -0.061785 4.139448 8.934023 -0.052646 4.213929 -0.007969 0.062257 4.198833 8.934022 0.068146 4.247137 -0.007969 0.159996 4.231842 8.934023 0.165255 4.258309 -0.007969 0.188405 4.258309 -0.007969 0.188405 4.249004 -0.007976 0.192068 4.249004 -0.007976 0.192068 4.243145 8.934023 0.194017 4.243145 8.934023 0.194017 4.252450 8.934029 0.190354 4.252450 8.934029 0.190354 4.208092 8.934029 0.064313 4.241232 8.934029 0.161808 -1.428162 -0.007969 -0.241463 -1.428187 8.934031 -0.251463 -0.919211 -0.007969 -0.243203 -0.919237 8.934031 -0.253203 -0.401272 -0.007969 -0.244089 -0.401241 8.934031 -0.254089 0.118137 -0.007970 -0.240037 0.118258 8.934031 -0.250036 0.635984 -0.007970 -0.231536 0.636147 8.934031 -0.241535 0.978234 -0.007970 -0.225979 0.978397 8.934031 -0.235978 1.238677 -0.007970 -0.221710 1.238840 8.934031 -0.231709 1.499120 -0.007970 -0.217441 1.499283 8.934031 -0.227440 1.759727 -0.007970 -0.213170 1.759562 8.934031 -0.223174 2.009579 -0.007970 -0.225449 2.009063 8.934031 -0.235436 2.269799 -0.007970 -0.239496 2.269259 8.934031 -0.249481 2.530006 -0.007972 -0.255085 2.529466 8.934031 -0.261983 2.790214 -0.007972 -0.270675 2.789674 8.934032 -0.274485 3.050421 -0.007974 -0.284721 3.049880 8.934031 -0.288531 3.310629 -0.007974 -0.298767 3.310088 8.934031 -0.302577 3.442409 -0.007974 -0.305868 3.442150 8.934031 -0.309718 3.758374 -0.007972 -0.276207 3.758798 8.934032 -0.280054 4.005956 -0.007974 -0.199764 4.007744 8.934031 -0.203314 4.144746 -0.007975 -0.055963 4.147729 8.934031 -0.058468 4.204670 -0.007976 0.066090 4.237747 -0.007976 0.163443 "
        								   opoint="-2.228153 -0.007968 -0.249979 -2.228135 -0.007968 -0.239979 -2.228129 8.934032 -0.239979 -2.228148 8.934032 -0.249979 -1.428188 -0.007969 -0.251463 -1.428162 -0.007969 -0.241463 -1.428161 8.934031 -0.241463 -1.428187 8.934031 -0.251463 -0.919238 -0.007969 -0.253203 -0.919211 -0.007969 -0.243203 -0.919211 8.934031 -0.243203 -0.919237 8.934031 -0.253203 -0.401242 -0.007969 -0.254089 -0.401272 -0.007969 -0.244089 -0.401271 8.934031 -0.244089 -0.401241 8.934031 -0.254089 0.118258 -0.007970 -0.250036 0.118137 -0.007970 -0.240037 0.118138 8.934031 -0.240037 0.118258 8.934031 -0.250036 0.636147 -0.007970 -0.241535 0.635984 -0.007970 -0.231536 0.635985 8.934031 -0.231536 0.636147 8.934031 -0.241535 0.978397 -0.007970 -0.235978 0.978234 -0.007970 -0.225979 0.978235 8.934031 -0.225979 0.978397 8.934031 -0.235978 1.238839 -0.007970 -0.231709 1.238677 -0.007970 -0.221710 1.238677 8.934031 -0.221710 1.238840 8.934031 -0.231709 1.499282 -0.007970 -0.227440 1.499120 -0.007970 -0.217441 1.499120 8.934031 -0.217441 1.499283 8.934031 -0.227440 1.759562 -0.007970 -0.223174 1.759727 -0.007970 -0.213170 1.759727 8.934031 -0.213170 1.759562 8.934031 -0.223174 2.009063 -0.007970 -0.235436 2.009579 -0.007970 -0.225449 2.009580 8.934031 -0.225449 2.009063 8.934031 -0.235436 2.269258 -0.007970 -0.249481 2.269799 -0.007970 -0.239496 2.269799 8.934031 -0.239496 2.269259 8.934031 -0.249481 2.529466 -0.007968 -0.265071 2.530006 -0.007972 -0.255085 2.530006 8.934028 -0.251998 2.529466 8.934031 -0.261983 2.789673 -0.007966 -0.280660 2.790214 -0.007972 -0.270675 2.790214 8.934025 -0.264500 2.789674 8.934032 -0.274485 3.049878 -0.007967 -0.294706 3.050421 -0.007974 -0.284721 3.050424 8.934025 -0.278546 3.049880 8.934031 -0.288531 3.310085 -0.007967 -0.308752 3.310629 -0.007974 -0.298767 3.310632 8.934025 -0.292592 3.310088 8.934031 -0.302577 3.442603 -0.007967 -0.315893 3.442409 -0.007974 -0.305868 3.441957 8.934025 -0.299692 3.442150 8.934031 -0.309718 3.760331 -0.007966 -0.286068 3.758374 -0.007972 -0.276207 3.756842 8.934025 -0.270193 3.758798 8.934032 -0.280054 4.011357 -0.007967 -0.208564 4.005956 -0.007974 -0.199764 4.002342 8.934025 -0.194515 4.007744 8.934031 -0.203314 4.153027 -0.007968 -0.061785 4.144746 -0.007975 -0.055963 4.139448 8.934023 -0.052646 4.147729 8.934031 -0.058468 4.213929 -0.007969 0.062257 4.204670 -0.007976 0.066090 4.198833 8.934022 0.068146 4.208092 8.934029 0.064313 4.247137 -0.007969 0.159996 4.237747 -0.007976 0.163443 4.231842 8.934023 0.165255 4.241232 8.934029 0.161808 4.258309 -0.007969 0.188405 4.249004 -0.007976 0.192068 4.243145 8.934023 0.194017 4.252450 8.934029 0.190354 "
								            
                                            />
								<TextureCoordinate point="0.2340 0.0604 0.2076 0.0604 0.2076 0.0600 0.2340 0.0600 0.2340 0.0600 0.2076 0.0600 0.2076 0.0604 0.2340 0.0604 0.9925 0.4325 0.9317 0.4325 0.9317 0.9946 0.9925 0.9946 0.2076 0.0604 0.1909 0.0604 0.1909 0.0600 0.2076 0.0600 0.2076 0.0600 0.1909 0.0600 0.1909 0.0604 0.2076 0.0604 0.9317 0.4325 0.8930 0.4325 0.8930 0.9946 0.9317 0.9946 0.1909 0.0604 0.1738 0.0603 0.1738 0.0599 0.1909 0.0600 0.1909 0.0600 0.1738 0.0599 0.1738 0.0603 0.1909 0.0604 0.8930 0.4325 0.8536 0.4325 0.8536 0.9946 0.8930 0.9946 0.1738 0.0603 0.1567 0.0601 0.1567 0.0597 0.1738 0.0599 0.1738 0.0599 0.1567 0.0597 0.1567 0.0601 0.1738 0.0603 0.8536 0.4325 0.8141 0.4325 0.8141 0.9946 0.8536 0.9946 0.1567 0.0601 0.1397 0.0597 0.1397 0.0593 0.1567 0.0597 0.1567 0.0597 0.1397 0.0593 0.1397 0.0597 0.1567 0.0601 0.8141 0.4325 0.7747 0.4325 0.7747 0.9946 0.8141 0.9946 0.1397 0.0597 0.1284 0.0594 0.1284 0.0590 0.1397 0.0593 0.1397 0.0593 0.1284 0.0590 0.1284 0.0594 0.1397 0.0597 0.7747 0.4325 0.7487 0.4325 0.7487 0.9946 0.7747 0.9946 0.1284 0.0594 0.1198 0.0592 0.1198 0.0588 0.1284 0.0590 0.1284 0.0590 0.1198 0.0588 0.1198 0.0592 0.1284 0.0594 0.7487 0.4325 0.7289 0.4325 0.7289 0.9946 0.7487 0.9946 0.1198 0.0592 0.1113 0.0590 0.1113 0.0586 0.1198 0.0588 0.1198 0.0588 0.1113 0.0586 0.1113 0.0590 0.1198 0.0592 0.7289 0.4325 0.7091 0.4325 0.7091 0.9946 0.7289 0.9946 0.1113 0.0590 0.1027 0.0588 0.1027 0.0584 0.1113 0.0586 0.1113 0.0586 0.1027 0.0584 0.1027 0.0588 0.1113 0.0590 0.7091 0.4325 0.6893 0.4325 0.6893 0.9946 0.7091 0.9946 0.1027 0.0588 0.0945 0.0593 0.0944 0.0589 0.1027 0.0584 0.1027 0.0584 0.0944 0.0589 0.0945 0.0593 0.1027 0.0588 0.6893 0.4325 0.6704 0.4325 0.6704 0.9946 0.6893 0.9946 0.0945 0.0593 0.0859 0.0598 0.0859 0.0594 0.0944 0.0589 0.0944 0.0589 0.0859 0.0594 0.0859 0.0598 0.0945 0.0593 0.6704 0.4325 0.6506 0.4325 0.6506 0.9946 0.6704 0.9946 0.0859 0.0598 0.0773 0.0603 0.0773 0.0599 0.0859 0.0594 0.0859 0.0594 0.0773 0.0599 0.0773 0.0603 0.0859 0.0598 0.6506 0.4325 0.6308 0.4325 0.6308 0.9946 0.6506 0.9946 0.0773 0.0603 0.0688 0.0608 0.0687 0.0604 0.0773 0.0599 0.0773 0.0599 0.0687 0.0604 0.0688 0.0608 0.0773 0.0603 0.6308 0.4325 0.6110 0.4325 0.6110 0.9946 0.6308 0.9946 0.0688 0.0608 0.0602 0.0614 0.0602 0.0610 0.0687 0.0604 0.0687 0.0604 0.0602 0.0610 0.0602 0.0614 0.0688 0.0608 0.6110 0.4325 0.5912 0.4325 0.5912 0.9946 0.6110 0.9946 0.0602 0.0614 0.0516 0.0619 0.0516 0.0615 0.0602 0.0610 0.0602 0.0610 0.0516 0.0615 0.0516 0.0619 0.0602 0.0614 0.5912 0.4325 0.5714 0.4325 0.5714 0.9946 0.5912 0.9946 0.0516 0.0619 0.0473 0.0622 0.0473 0.0618 0.0516 0.0615 0.0516 0.0615 0.0473 0.0618 0.0473 0.0622 0.0516 0.0619 0.5714 0.4325 0.5614 0.4325 0.5614 0.9946 0.5714 0.9946 0.0473 0.0622 0.0368 0.0609 0.0369 0.0605 0.0473 0.0618 0.0473 0.0618 0.0369 0.0605 0.0368 0.0609 0.0473 0.0622 0.5614 0.4325 0.5373 0.4325 0.5373 0.9946 0.5614 0.9946 0.0368 0.0609 0.0286 0.0578 0.0288 0.0574 0.0369 0.0605 0.0369 0.0605 0.0288 0.0574 0.0286 0.0578 0.0368 0.0609 0.5373 0.4325 0.5183 0.4325 0.5183 0.9946 0.5373 0.9946 0.0286 0.0578 0.0240 0.0519 0.0243 0.0517 0.0288 0.0574 0.0288 0.0574 0.0243 0.0517 0.0240 0.0519 0.0286 0.0578 0.5183 0.4325 0.5076 0.4325 0.5076 0.9946 0.5183 0.9946 0.0240 0.0519 0.0220 0.0469 0.0223 0.0468 0.0243 0.0517 0.0243 0.0517 0.0223 0.0468 0.0220 0.0469 0.0240 0.0519 0.5076 0.4325 0.5030 0.4325 0.5030 0.9946 0.5076 0.9946 0.0220 0.0469 0.0209 0.0430 0.0212 0.0428 0.0223 0.0468 0.0223 0.0468 0.0212 0.0428 0.0209 0.0430 0.0220 0.0469 0.5030 0.4325 0.5005 0.4325 0.5005 0.9946 0.5030 0.9946 0.0209 0.0430 0.0206 0.0418 0.0209 0.0417 0.0212 0.0428 0.0212 0.0428 0.0209 0.0417 0.0206 0.0418 0.0209 0.0430 0.5005 0.4325 0.4997 0.4325 0.4997 0.9946 0.5005 0.9946 0.2340 0.0600 0.2340 0.0600 0.2340 0.0604 0.2340 0.0604 0.0209 0.0417 0.0209 0.0417 0.0206 0.0418 0.0206 0.0418 " />
							</IndexedFaceSet>
						</Shape>
						<Shape>
							<Appearance>
								<Material DEF="MA_Max_MaterialID_1"
								          diffuseColor="0.800 0.800 0.800"
								          specularColor="0.401 0.401 0.401"
								          emissiveColor="0.000 0.000 0.000"
								          ambientIntensity="0.000"
								          shininess="0.500"
								          transparency="0.0"
								          />
							</Appearance>
							<IndexedFaceSet solid="false"
							                creaseAngle="0.5236"
							                texCoordIndex="0 1 2 3 -1 4 5 6 7 -1 8 9 10 11 -1 12 13 14 15 -1 16 17 18 19 -1 20 21 22 23 -1 24 25 26 27 -1 28 29 30 31 -1 32 33 34 35 -1 36 37 38 39 -1 40 41 42 43 -1 44 45 46 47 -1 48 49 50 51 -1 52 53 54 55 -1 56 57 58 59 -1 60 61 62 63 -1 64 65 66 67 -1 68 69 70 71 -1 72 73 74 75 -1 76 77 78 79 -1 80 81 82 83 -1 84 85 86 87 -1 "
							                coordIndex="95 5 101 97 -1 5 9 103 101 -1 9 13 105 103 -1 13 17 106 105 -1 17 21 109 106 -1 21 25 111 109 -1 25 29 113 111 -1 29 33 115 113 -1 33 37 117 115 -1 37 41 119 117 -1 41 45 121 119 -1 45 49 123 121 -1 49 53 125 123 -1 53 57 127 125 -1 57 61 129 127 -1 61 65 131 129 -1 65 69 132 131 -1 69 73 135 132 -1 73 77 137 135 -1 77 81 139 137 -1 81 85 141 139 -1 85 145 146 141 -1 "
							                >
								<Coordinate USE="coords_ME_RightPageFlip_001" />
								<TextureCoordinate point="0.0084 0.9946 0.0714 0.9946 0.0714 0.4328 0.0084 0.4328 0.0714 0.9946 0.1115 0.9946 0.1115 0.4328 0.0714 0.4328 0.1115 0.9946 0.1524 0.9946 0.1524 0.4328 0.1115 0.4328 0.1524 0.9946 0.1933 0.9946 0.1933 0.4328 0.1524 0.4328 0.1933 0.9946 0.2342 0.9946 0.2342 0.4328 0.1933 0.4328 0.2342 0.9946 0.2612 0.9946 0.2612 0.4328 0.2342 0.4328 0.2612 0.9946 0.2816 0.9946 0.2816 0.4328 0.2612 0.4328 0.2816 0.9946 0.3021 0.9946 0.3021 0.4328 0.2816 0.4328 0.3021 0.9946 0.3226 0.9946 0.3226 0.4328 0.3021 0.4328 0.3226 0.9946 0.3424 0.9946 0.3424 0.4328 0.3226 0.4328 0.3424 0.9946 0.3625 0.9946 0.3625 0.4328 0.3424 0.4328 0.3625 0.9946 0.3827 0.9946 0.3827 0.4328 0.3625 0.4328 0.3827 0.9946 0.4031 0.9946 0.4031 0.4328 0.3827 0.4328 0.4031 0.9946 0.4235 0.9946 0.4235 0.4328 0.4031 0.4328 0.4235 0.9946 0.4439 0.9946 0.4439 0.4328 0.4235 0.4328 0.4439 0.9946 0.4543 0.9946 0.4543 0.4328 0.4439 0.4328 0.4543 0.9946 0.4685 0.9946 0.4685 0.4328 0.4543 0.4328 0.4685 0.9946 0.4837 0.9946 0.4837 0.4328 0.4685 0.4328 0.4837 0.9946 0.4943 0.9946 0.4943 0.4328 0.4837 0.4328 0.4943 0.9946 0.5001 0.9946 0.5001 0.4328 0.4943 0.4328 0.5001 0.9946 0.4961 0.9946 0.4961 0.4328 0.5001 0.4328 0.4961 0.9946 0.4917 0.9946 0.4917 0.4328 0.4961 0.4328 " />
							</IndexedFaceSet>
						</Shape>
					</Group>
				</Transform>
			</Transform>
		</Transform>
		<CoordinateInterpolator DEF='COORD_INTERPOLATOR_FLIP'
		    key='
0.000000 0.109890 0.219780 0.329670 0.439560 0.549451 0.659341 0.769231 0.879121 0.989011
			'
            keyValue='
95.60 27.77 4.29 95.60 27.77 4.26 95.60 -0.27 4.26 95.60 -0.27 4.29 92.96 27.77 4.28 92.96 27.77 4.26 92.96 -0.27 4.26 92.96 -0.27 4.28 91.28 27.77 4.28 91.28 27.77 4.26 91.28 -0.27 4.26 91.28 -0.27 4.28 89.57 27.77 4.28 89.57 27.77 4.25 89.57 -0.27 4.25 89.57 -0.27 4.28 87.85 27.77 4.27 87.85 27.77 4.24 87.85 -0.27 4.24 87.85 -0.27 4.27 86.14 27.77 4.24 86.14 27.77 4.21 86.14 -0.27 4.21 86.14 -0.27 4.24 85.01 27.77 4.22 85.01 27.77 4.20 85.01 -0.27 4.20 85.01 -0.27 4.22 84.15 27.77 4.21 84.15 27.77 4.18 84.15 -0.27 4.18 84.15 -0.27 4.21 83.29 27.77 4.19 83.29 27.77 4.17 83.29 -0.27 4.17 83.29 -0.27 4.19 82.44 27.77 4.18 82.43 27.77 4.16 82.43 -0.27 4.16 82.44 -0.27 4.18 81.61 27.77 4.21 81.61 27.77 4.18 81.61 -0.27 4.18 81.61 -0.27 4.21 80.75 27.77 4.24 80.75 27.77 4.22 80.75 -0.27 4.22 80.75 -0.27 4.24 79.89 27.77 4.28 79.89 27.77 4.25 79.89 -0.27 4.25 79.89 -0.27 4.28 79.03 27.77 4.31 79.03 27.77 4.29 79.03 -0.27 4.29 79.03 -0.27 4.31 78.18 27.77 4.35 78.17 27.77 4.32 78.17 -0.27 4.32 78.18 -0.27 4.35 77.32 27.77 4.38 77.31 27.77 4.35 77.31 -0.27 4.35 77.32 -0.27 4.38 76.88 27.77 4.40 76.88 27.77 4.37 76.88 -0.27 4.37 76.88 -0.27 4.40 75.83 27.77 4.32 75.84 27.77 4.29 75.84 -0.27 4.29 75.83 -0.27 4.32 75.01 27.77 4.12 75.03 27.77 4.09 75.03 -0.27 4.09 75.01 -0.27 4.12 74.54 27.77 3.74 74.57 27.77 3.72 74.57 -0.27 3.72 74.54 -0.27 3.74 74.35 27.77 3.41 74.38 27.77 3.41 74.38 -0.27 3.41 74.35 -0.27 3.41 74.24 27.77 3.16 74.27 27.77 3.15 74.27 -0.27 3.15 74.24 -0.27 3.16 74.20 27.77 3.09 74.23 27.77 3.08 74.23 -0.27 3.08 74.20 -0.27 3.09
95.60 27.77 4.29 95.60 27.77 4.26 95.60 -0.27 4.26 95.60 -0.27 4.29 92.96 27.77 4.28 92.96 27.77 4.26 92.96 -0.27 4.26 92.96 -0.27 4.28 91.28 27.77 4.28 91.28 27.77 4.26 91.28 -0.27 4.26 91.28 -0.27 4.28 89.57 27.77 4.28 89.57 27.77 4.25 89.57 -0.27 4.25 89.57 -0.27 4.28 87.85 27.77 4.27 87.85 27.77 4.24 87.85 -0.27 4.24 87.85 -0.27 4.27 86.14 27.77 4.24 86.14 27.77 4.21 86.14 -0.27 4.21 86.14 -0.27 4.24 85.01 27.77 4.22 85.01 27.77 4.19 85.01 -0.27 4.19 85.01 -0.27 4.22 84.15 27.77 4.21 84.15 27.77 4.18 84.15 -0.27 4.18 84.15 -0.27 4.21 83.29 27.77 4.19 83.29 27.77 4.17 83.29 -0.27 4.17 83.29 -0.27 4.19 82.43 27.77 4.18 82.43 27.77 4.15 82.43 -0.27 4.15 82.43 -0.27 4.18 81.61 27.77 4.21 81.61 27.77 4.18 81.61 -0.27 4.18 81.61 -0.27 4.21 80.75 27.77 4.24 80.75 27.77 4.22 80.75 -0.27 4.22 80.75 -0.27 4.24 79.89 27.77 4.28 79.89 27.77 4.26 79.89 -0.27 4.25 79.89 -0.27 4.27 79.03 27.77 4.32 79.03 27.77 4.29 79.03 -0.27 4.28 79.03 -0.27 4.30 78.18 27.77 4.35 78.17 27.77 4.33 78.17 -0.27 4.31 78.18 -0.27 4.34 77.32 27.77 4.39 77.31 27.77 4.36 77.31 -0.27 4.35 77.32 -0.27 4.37 76.88 27.77 4.41 76.88 27.77 4.38 76.88 -0.27 4.36 76.88 -0.27 4.39 75.83 27.77 4.33 75.84 27.77 4.30 75.84 -0.27 4.28 75.84 -0.27 4.31 75.00 27.77 4.12 75.02 27.77 4.10 75.03 -0.27 4.09 75.01 -0.27 4.11 74.54 27.77 3.74 74.56 27.77 3.72 74.58 -0.27 3.72 74.55 -0.27 3.73 74.34 27.77 3.42 74.37 27.77 3.41 74.39 -0.27 3.40 74.36 -0.27 3.41 74.23 27.77 3.16 74.26 27.77 3.15 74.28 -0.27 3.15 74.25 -0.27 3.16 74.19 27.77 3.09 74.22 27.77 3.08 74.24 -0.27 3.08 74.21 -0.27 3.08
93.48 27.77 12.06 93.49 27.77 12.04 93.49 -0.27 12.04 93.48 -0.27 12.06 91.01 27.77 11.13 91.02 27.77 11.10 91.02 -0.27 11.10 91.01 -0.27 11.13 89.43 27.77 10.55 89.44 27.77 10.52 89.44 -0.27 10.52 89.43 -0.27 10.55 87.83 27.77 9.95 87.84 27.77 9.93 87.84 -0.27 9.93 87.83 -0.27 9.95 86.23 27.77 9.32 86.24 27.77 9.30 86.24 -0.27 9.30 86.23 -0.27 9.32 84.65 27.77 8.68 84.66 27.77 8.65 84.66 -0.27 8.65 84.65 -0.27 8.68 83.60 27.77 8.24 83.61 27.77 8.22 83.61 -0.27 8.22 83.60 -0.27 8.24 82.82 27.77 7.90 82.83 27.77 7.88 82.83 -0.27 7.88 82.82 -0.27 7.90 82.04 27.77 7.54 82.05 27.77 7.51 82.05 -0.27 7.51 82.04 -0.27 7.54 81.26 27.77 7.17 81.28 27.77 7.15 81.28 -0.27 7.15 81.26 -0.27 7.17 80.51 27.77 6.84 80.52 27.77 6.82 80.52 -0.27 6.82 80.51 -0.27 6.84 79.73 27.77 6.49 79.74 27.77 6.47 79.74 -0.27 6.47 79.73 -0.27 6.49 78.95 27.77 6.16 78.96 27.77 6.14 78.96 -0.27 6.14 78.95 -0.27 6.16 78.25 27.77 5.89 78.26 27.77 5.86 78.26 -0.27 5.86 78.25 -0.27 5.89 77.54 27.77 5.63 77.55 27.77 5.60 77.55 -0.27 5.60 77.54 -0.27 5.63 76.81 27.77 5.37 76.81 27.77 5.34 76.81 -0.27 5.34 76.81 -0.27 5.37 76.32 27.77 5.19 76.33 27.77 5.17 76.33 -0.27 5.17 76.32 -0.27 5.19 75.50 27.77 4.81 75.52 27.77 4.79 75.52 -0.27 4.79 75.50 -0.27 4.81 74.97 27.77 4.43 75.00 27.77 4.41 75.00 -0.27 4.41 74.97 -0.27 4.43 74.71 27.77 4.04 74.74 27.77 4.03 74.74 -0.27 4.03 74.71 -0.27 4.04 74.44 27.77 3.58 74.47 27.77 3.58 74.47 -0.27 3.58 74.44 -0.27 3.58 74.33 27.77 3.25 74.36 27.77 3.24 74.36 -0.27 3.24 74.33 -0.27 3.25 74.20 27.77 3.09 74.23 27.77 3.08 74.23 -0.27 3.08 74.20 -0.27 3.09
88.67 27.77 18.46 88.69 27.77 18.44 88.69 -0.27 18.44 88.67 -0.27 18.46 86.69 27.77 16.71 86.70 27.77 16.69 86.70 -0.27 16.69 86.69 -0.27 16.71 85.40 27.77 15.61 85.42 27.77 15.59 85.42 -0.27 15.59 85.40 -0.27 15.61 84.10 27.77 14.49 84.12 27.77 14.47 84.12 -0.27 14.47 84.10 -0.27 14.49 82.83 27.77 13.33 82.85 27.77 13.32 82.85 -0.27 13.32 82.83 -0.27 13.33 81.59 27.77 12.16 81.61 27.77 12.14 81.61 -0.27 12.14 81.59 -0.27 12.16 80.78 27.77 11.37 80.80 27.77 11.35 80.80 -0.27 11.35 80.78 -0.27 11.37 80.19 27.77 10.75 80.21 27.77 10.74 80.21 -0.27 10.74 80.19 -0.27 10.75 79.63 27.77 10.10 79.65 27.77 10.08 79.65 -0.27 10.08 79.63 -0.27 10.10 79.07 27.77 9.45 79.09 27.77 9.43 79.09 -0.27 9.43 79.07 -0.27 9.45 78.54 27.77 8.82 78.56 27.77 8.80 78.56 -0.27 8.80 78.54 -0.27 8.82 78.00 27.77 8.17 78.02 27.77 8.15 78.02 -0.27 8.15 78.00 -0.27 8.17 77.43 27.77 7.54 77.45 27.77 7.52 77.45 -0.27 7.52 77.43 -0.27 7.54 76.98 27.77 7.08 77.00 27.77 7.06 77.00 -0.27 7.06 76.98 -0.27 7.08 76.50 27.77 6.64 76.52 27.77 6.62 76.52 -0.27 6.62 76.50 -0.27 6.64 75.98 27.77 6.17 75.99 27.77 6.15 75.99 -0.27 6.15 75.98 -0.27 6.17 75.53 27.77 5.78 75.54 27.77 5.76 75.54 -0.27 5.76 75.53 -0.27 5.78 75.00 27.77 5.24 75.02 27.77 5.22 75.02 -0.27 5.22 75.00 -0.27 5.24 74.76 27.77 4.85 74.78 27.77 4.85 74.78 -0.27 4.85 74.76 -0.27 4.85 74.64 27.77 4.52 74.67 27.77 4.52 74.67 -0.27 4.52 74.64 -0.27 4.52 74.56 27.77 4.13 74.59 27.77 4.13 74.59 -0.27 4.13 74.56 -0.27 4.13 74.35 27.77 3.40 74.38 27.77 3.40 74.38 -0.27 3.40 74.35 -0.27 3.40 74.20 27.77 3.09 74.23 27.77 3.08 74.23 -0.27 3.08 74.20 -0.27 3.09
81.88 27.77 22.58 81.91 27.77 22.56 81.91 -0.27 22.56 81.88 -0.27 22.58 80.64 27.77 20.24 80.67 27.77 20.22 80.67 -0.27 20.22 80.64 -0.27 20.24 79.82 27.77 18.76 79.84 27.77 18.74 79.84 -0.27 18.74 79.82 -0.27 18.76 78.98 27.77 17.25 79.00 27.77 17.24 79.00 -0.27 17.24 78.98 -0.27 17.25 78.20 27.77 15.71 78.22 27.77 15.70 78.22 -0.27 15.70 78.20 -0.27 15.71 77.48 27.77 14.16 77.50 27.77 14.15 77.50 -0.27 14.15 77.48 -0.27 14.16 77.01 27.77 13.14 77.04 27.77 13.13 77.04 -0.27 13.13 77.01 -0.27 13.14 76.70 27.77 12.34 76.73 27.77 12.33 76.73 -0.27 12.33 76.70 -0.27 12.34 76.47 27.77 11.51 76.49 27.77 11.51 76.49 -0.27 11.51 76.47 -0.27 11.51 76.23 27.77 10.69 76.25 27.77 10.68 76.25 -0.27 10.68 76.23 -0.27 10.69 76.02 27.77 9.89 76.05 27.77 9.88 76.05 -0.27 9.88 76.02 -0.27 9.89 75.82 27.77 9.06 75.84 27.77 9.05 75.84 -0.27 9.05 75.82 -0.27 9.06 75.63 27.77 8.22 75.65 27.77 8.22 75.65 -0.27 8.22 75.63 -0.27 8.22 75.50 27.77 7.73 75.52 27.77 7.72 75.52 -0.27 7.72 75.50 -0.27 7.73 75.33 27.77 7.19 75.35 27.77 7.19 75.35 -0.27 7.19 75.33 -0.27 7.19 75.13 27.77 6.65 75.15 27.77 6.64 75.15 -0.27 6.64 75.13 -0.27 6.65 74.94 27.77 6.05 74.96 27.77 6.05 74.96 -0.27 6.05 74.94 -0.27 6.05 74.74 27.77 5.44 74.77 27.77 5.44 74.77 -0.27 5.44 74.74 -0.27 5.44 74.65 27.77 4.99 74.67 27.77 4.99 74.67 -0.27 4.99 74.65 -0.27 4.99 74.59 27.77 4.57 74.62 27.77 4.57 74.62 -0.27 4.57 74.59 -0.27 4.57 74.54 27.77 4.05 74.56 27.77 4.05 74.56 -0.27 4.05 74.54 -0.27 4.05 74.38 27.77 3.41 74.40 27.77 3.40 74.40 -0.27 3.40 74.38 -0.27 3.41 74.21 27.77 3.09 74.23 27.77 3.08 74.23 -0.27 3.08 74.21 -0.27 3.09
74.11 27.77 23.87 74.14 27.77 23.87 74.14 -0.27 23.87 74.11 -0.27 23.87 73.98 27.77 21.25 74.00 27.77 21.25 74.00 -0.27 21.25 73.98 -0.27 21.25 73.95 27.77 19.58 73.98 27.77 19.58 73.98 -0.27 19.58 73.95 -0.27 19.58 73.89 27.77 17.87 73.92 27.77 17.87 73.92 -0.27 17.87 73.89 -0.27 17.87 73.87 27.77 16.17 73.90 27.77 16.17 73.90 -0.27 16.17 73.87 -0.27 16.17 73.82 27.77 14.47 73.84 27.77 14.46 73.84 -0.27 14.46 73.82 -0.27 14.47 73.75 27.77 13.34 73.78 27.77 13.34 73.78 -0.27 13.34 73.75 -0.27 13.34 73.75 27.77 12.48 73.77 27.77 12.49 73.77 -0.27 12.49 73.75 -0.27 12.48 73.82 27.77 11.63 73.84 27.77 11.63 73.84 -0.27 11.63 73.82 -0.27 11.63 73.92 27.77 10.77 73.95 27.77 10.78 73.95 -0.27 10.78 73.92 -0.27 10.77 74.04 27.77 9.95 74.06 27.77 9.96 74.06 -0.27 9.96 74.04 -0.27 9.95 74.15 27.77 9.11 74.17 27.77 9.11 74.17 -0.27 9.11 74.15 -0.27 9.11 74.21 27.77 8.26 74.24 27.77 8.26 74.24 -0.27 8.26 74.21 -0.27 8.26 74.23 27.77 7.88 74.25 27.77 7.88 74.25 -0.27 7.88 74.23 -0.27 7.88 74.24 27.77 7.40 74.27 27.77 7.40 74.27 -0.27 7.40 74.24 -0.27 7.40 74.27 27.77 6.92 74.29 27.77 6.93 74.29 -0.27 6.93 74.27 -0.27 6.92 74.31 27.77 6.27 74.33 27.77 6.28 74.33 -0.27 6.28 74.31 -0.27 6.27 74.38 27.77 5.73 74.41 27.77 5.74 74.41 -0.27 5.74 74.38 -0.27 5.73 74.43 27.77 5.27 74.45 27.77 5.27 74.45 -0.27 5.27 74.43 -0.27 5.27 74.49 27.77 4.79 74.51 27.77 4.80 74.51 -0.27 4.80 74.49 -0.27 4.79 74.56 27.77 4.12 74.59 27.77 4.12 74.59 -0.27 4.12 74.56 -0.27 4.12 74.40 27.77 3.49 74.42 27.77 3.48 74.42 -0.27 3.48 74.40 -0.27 3.49 74.20 27.77 3.10 74.23 27.77 3.08 74.23 -0.27 3.08 74.20 -0.27 3.10
66.47 27.77 22.21 66.49 27.77 22.22 66.49 -0.27 22.22 66.47 -0.27 22.21 67.43 27.77 19.77 67.46 27.77 19.78 67.46 -0.27 19.78 67.43 -0.27 19.77 68.09 27.77 18.24 68.11 27.77 18.25 68.11 -0.27 18.25 68.09 -0.27 18.24 68.73 27.77 16.66 68.76 27.77 16.67 68.76 -0.27 16.67 68.73 -0.27 16.66 69.40 27.77 15.09 69.43 27.77 15.10 69.43 -0.27 15.10 69.40 -0.27 15.09 70.00 27.77 13.50 70.02 27.77 13.51 70.02 -0.27 13.51 70.00 -0.27 13.50 70.45 27.77 12.47 70.48 27.77 12.48 70.48 -0.27 12.48 70.45 -0.27 12.47 70.82 27.77 11.72 70.84 27.77 11.74 70.84 -0.27 11.74 70.82 -0.27 11.72 71.25 27.77 10.99 71.27 27.77 11.00 71.27 -0.27 11.00 71.25 -0.27 10.99 71.69 27.77 10.25 71.71 27.77 10.27 71.71 -0.27 10.27 71.69 -0.27 10.25 72.13 27.77 9.59 72.15 27.77 9.61 72.15 -0.27 9.61 72.13 -0.27 9.59 72.60 27.77 8.91 72.62 27.77 8.93 72.62 -0.27 8.93 72.60 -0.27 8.91 73.02 27.77 8.27 73.05 27.77 8.29 73.05 -0.27 8.29 73.02 -0.27 8.27 73.27 27.77 7.76 73.29 27.77 7.78 73.29 -0.27 7.78 73.27 -0.27 7.76 73.66 27.77 7.24 73.68 27.77 7.26 73.68 -0.27 7.26 73.66 -0.27 7.24 73.94 27.77 6.78 73.96 27.77 6.79 73.96 -0.27 6.79 73.94 -0.27 6.78 74.20 27.77 6.31 74.22 27.77 6.32 74.22 -0.27 6.32 74.20 -0.27 6.31 74.41 27.77 5.86 74.44 27.77 5.87 74.44 -0.27 5.87 74.41 -0.27 5.86 74.54 27.77 5.42 74.57 27.77 5.43 74.57 -0.27 5.43 74.54 -0.27 5.42 74.76 27.77 4.58 74.78 27.77 4.57 74.78 -0.27 4.57 74.76 -0.27 4.58 74.63 27.77 4.06 74.66 27.77 4.04 74.66 -0.27 4.04 74.63 -0.27 4.06 74.43 27.77 3.58 74.45 27.77 3.56 74.45 -0.27 3.56 74.43 -0.27 3.58 74.20 27.77 3.10 74.23 27.77 3.08 74.23 -0.27 3.08 74.20 -0.27 3.10
60.04 27.77 17.86 60.05 27.77 17.88 60.05 -0.27 17.88 60.04 -0.27 17.86 61.93 27.77 16.04 61.94 27.77 16.06 61.94 -0.27 16.06 61.93 -0.27 16.04 63.15 27.77 14.91 63.17 27.77 14.93 63.17 -0.27 14.93 63.15 -0.27 14.91 64.39 27.77 13.74 64.40 27.77 13.76 64.40 -0.27 13.76 64.39 -0.27 13.74 65.63 27.77 12.57 65.65 27.77 12.59 65.65 -0.27 12.59 65.63 -0.27 12.57 66.83 27.77 11.38 66.85 27.77 11.40 66.85 -0.27 11.40 66.83 -0.27 11.38 67.66 27.77 10.61 67.68 27.77 10.63 67.68 -0.27 10.63 67.66 -0.27 10.61 68.31 27.77 10.12 68.32 27.77 10.14 68.32 -0.27 10.14 68.31 -0.27 10.12 68.96 27.77 9.56 68.98 27.77 9.58 68.98 -0.27 9.58 68.96 -0.27 9.56 69.63 27.77 9.02 69.64 27.77 9.05 69.64 -0.27 9.05 69.63 -0.27 9.02 70.31 27.77 8.59 70.32 27.77 8.61 70.32 -0.27 8.61 70.31 -0.27 8.59 71.04 27.77 8.23 71.05 27.77 8.26 71.05 -0.27 8.26 71.04 -0.27 8.23 71.76 27.77 7.86 71.77 27.77 7.89 71.77 -0.27 7.89 71.76 -0.27 7.86 72.28 27.77 7.59 72.29 27.77 7.62 72.29 -0.27 7.62 72.28 -0.27 7.59 73.00 27.77 7.21 73.01 27.77 7.23 73.01 -0.27 7.23 73.00 -0.27 7.21 73.57 27.77 6.93 73.58 27.77 6.95 73.58 -0.27 6.95 73.57 -0.27 6.93 73.92 27.77 6.69 73.93 27.77 6.71 73.93 -0.27 6.71 73.92 -0.27 6.69 74.22 27.77 6.35 74.25 27.77 6.36 74.25 -0.27 6.36 74.22 -0.27 6.35 74.44 27.77 5.94 74.46 27.77 5.94 74.46 -0.27 5.94 74.44 -0.27 5.94 74.63 27.77 5.15 74.65 27.77 5.15 74.65 -0.27 5.15 74.63 -0.27 5.15 74.65 27.77 4.14 74.68 27.77 4.13 74.68 -0.27 4.13 74.65 -0.27 4.14 74.39 27.77 3.51 74.42 27.77 3.49 74.42 -0.27 3.49 74.39 -0.27 3.51 74.20 27.77 3.10 74.22 27.77 3.08 74.22 -0.27 3.08 74.20 -0.27 3.10
55.71 27.77 11.49 55.72 27.77 11.52 55.72 -0.27 11.52 55.71 -0.27 11.49 58.19 27.77 10.62 58.19 27.77 10.64 58.19 -0.27 10.64 58.19 -0.27 10.62 59.77 27.77 10.08 59.78 27.77 10.10 59.78 -0.27 10.10 59.77 -0.27 10.08 61.38 27.77 9.52 61.39 27.77 9.54 61.39 -0.27 9.54 61.38 -0.27 9.52 62.99 27.77 8.95 63.00 27.77 8.98 63.00 -0.27 8.98 62.99 -0.27 8.95 64.59 27.77 8.37 64.60 27.77 8.39 64.60 -0.27 8.39 64.59 -0.27 8.37 65.66 27.77 7.99 65.66 27.77 8.02 65.66 -0.27 8.02 65.66 -0.27 7.99 66.45 27.77 7.74 66.45 27.77 7.76 66.45 -0.27 7.76 66.45 -0.27 7.74 67.26 27.77 7.48 67.27 27.77 7.50 67.27 -0.27 7.50 67.26 -0.27 7.48 68.09 27.77 7.23 68.09 27.77 7.26 68.09 -0.27 7.26 68.09 -0.27 7.23 68.89 27.77 7.05 68.89 27.77 7.08 68.89 -0.27 7.08 68.89 -0.27 7.05 69.71 27.77 6.93 69.71 27.77 6.95 69.71 -0.27 6.95 69.71 -0.27 6.93 70.53 27.77 6.80 70.53 27.77 6.82 70.53 -0.27 6.82 70.53 -0.27 6.80 71.27 27.77 6.68 71.27 27.77 6.71 71.27 -0.27 6.71 71.27 -0.27 6.68 72.06 27.77 6.53 72.06 27.77 6.55 72.06 -0.27 6.55 72.06 -0.27 6.53 72.79 27.77 6.41 72.80 27.77 6.43 72.80 -0.27 6.43 72.79 -0.27 6.41 73.26 27.77 6.28 73.27 27.77 6.31 73.27 -0.27 6.31 73.26 -0.27 6.28 73.63 27.77 6.11 73.64 27.77 6.13 73.64 -0.27 6.13 73.63 -0.27 6.11 74.10 27.77 5.71 74.13 27.77 5.73 74.13 -0.27 5.73 74.10 -0.27 5.71 74.43 27.77 5.07 74.46 27.77 5.07 74.46 -0.27 5.07 74.43 -0.27 5.07 74.59 27.77 4.13 74.62 27.77 4.12 74.62 -0.27 4.12 74.59 -0.27 4.13 74.38 27.77 3.49 74.41 27.77 3.48 74.41 -0.27 3.48 74.38 -0.27 3.49 74.19 27.77 3.10 74.22 27.77 3.08 74.22 -0.27 3.08 74.19 -0.27 3.10
54.07 27.77 4.03 54.06 27.77 4.05 54.06 -0.27 4.05 54.07 -0.27 4.03 56.69 27.77 4.26 56.69 27.77 4.29 56.69 -0.27 4.29 56.69 -0.27 4.26 58.37 27.77 4.41 58.36 27.77 4.44 58.36 -0.27 4.44 58.37 -0.27 4.41 60.07 27.77 4.56 60.07 27.77 4.59 60.07 -0.27 4.59 60.07 -0.27 4.56 61.78 27.77 4.70 61.77 27.77 4.73 61.77 -0.27 4.73 61.78 -0.27 4.70 63.48 27.77 4.83 63.48 27.77 4.85 63.48 -0.27 4.85 63.48 -0.27 4.83 64.61 27.77 4.91 64.60 27.77 4.94 64.60 -0.27 4.94 64.61 -0.27 4.91 65.46 27.77 4.94 65.46 27.77 4.97 65.46 -0.27 4.97 65.46 -0.27 4.94 66.31 27.77 5.01 66.31 27.77 5.04 66.31 -0.27 5.04 66.31 -0.27 5.01 67.17 27.77 5.09 67.16 27.77 5.12 67.16 -0.27 5.12 67.17 -0.27 5.09 68.00 27.77 5.20 67.99 27.77 5.23 67.99 -0.27 5.23 68.00 -0.27 5.20 68.84 27.77 5.33 68.83 27.77 5.36 68.83 -0.27 5.36 68.84 -0.27 5.33 69.68 27.77 5.47 69.67 27.77 5.50 69.67 -0.27 5.50 69.68 -0.27 5.47 70.53 27.77 5.60 70.52 27.77 5.63 70.52 -0.27 5.63 70.53 -0.27 5.60 71.38 27.77 5.73 71.37 27.77 5.76 71.37 -0.27 5.76 71.38 -0.27 5.73 72.23 27.77 5.86 72.22 27.77 5.89 72.22 -0.27 5.89 72.23 -0.27 5.86 72.66 27.77 5.93 72.66 27.77 5.95 72.66 -0.27 5.95 72.66 -0.27 5.93 73.24 27.77 5.92 73.25 27.77 5.95 73.25 -0.27 5.95 73.24 -0.27 5.92 73.86 27.77 5.62 73.88 27.77 5.64 73.88 -0.27 5.64 73.86 -0.27 5.62 74.29 27.77 5.06 74.33 27.77 5.07 74.33 -0.27 5.07 74.29 -0.27 5.06 74.53 27.77 4.13 74.57 27.77 4.13 74.57 -0.27 4.13 74.53 -0.27 4.13 74.37 27.77 3.46 74.40 27.77 3.45 74.40 -0.27 3.45 74.37 -0.27 3.46 74.19 27.77 3.09 74.22 27.77 3.08 74.22 -0.27 3.08 74.19 -0.27 3.09
			'/>
	</Scene>
</X3D>