<X3D>
  <Scene>
    <Transform scale='0.0003 0.0003 0.0003' rotation='1 0 0 -1.57' translation='0 0 0.002'>
    <Shape>
      <Appearance DEF='a0'>
        <Material diffuseColor='0.01 0.01 0.01' specularColor='0.05 0.05 0.05'/>
      </Appearance>
      <Cylinder height='16' radius='2.' subdivision='8'/>
    </Shape>
    <Transform translation='0 8 -6.4' scale='0.8 0.8 0.8'>
      <Shape>
        <Appearance USE='a0'/>
        <Extrusion 
         crossSection='-0.25 -2, -0.5 0, -0.25 2, 0.25 2, 0.5 0, 0.25 -2, -0.25 -2'
         spine='0 0 0, -3.5 0 1.5, -5 0 5, -3.5 0 8.5, 0 0 10, 3.5 0 8.5, 5 0 5, 3.5 0 1.5, 0 0 0'>
        </Extrusion>
      </Shape>
    </Transform>
    </Transform>
  </Scene>
</X3D>
